<svg xmlns="http://www.w3.org/2000/svg" xmlns:xlink="http://www.w3.org/1999/xlink">
  <defs>
    <symbol viewBox="0 0 32 32" id="facebook">
      <path d="M23.484 5.308H20.67c-1.027 0-1.72.23-2.079.692-.358.462-.537 1.154-.537 2.077v3.635h5.25l-.698 5.692h-4.552V32H12.57V17.404H8v-5.692h4.57V7.519c0-2.384.621-4.234 1.864-5.548C15.676.657 17.33 0 19.398 0c1.756 0 3.118.077 4.086.23v5.078z"/>
    </symbol>
    <symbol viewBox="0 0 32 32" id="github">
      <path d="M28.948 25.145c-2.035 2.756-4.663 4.663-7.886 5.721-.375.069-.649.02-.822-.144a.818.818 0 01-.26-.619v-4.35c0-1.334-.362-2.31-1.084-2.928a14.403 14.403 0 002.135-.371 8.56 8.56 0 001.959-.804 5.81 5.81 0 001.687-1.371c.451-.543.82-1.265 1.104-2.165.285-.9.427-1.935.427-3.104 0-1.663-.548-3.079-1.646-4.247.514-1.25.459-2.653-.166-4.206-.39-.124-.952-.048-1.688.227-.736.274-1.375.577-1.916.907L20 8.186a14.93 14.93 0 00-4-.536 14.93 14.93 0 00-4 .536 18.513 18.513 0 00-.885-.557c-.368-.22-.948-.485-1.74-.794-.792-.31-1.389-.402-1.792-.278-.61 1.553-.66 2.955-.146 4.206-1.097 1.168-1.645 2.584-1.645 4.247 0 1.169.142 2.2.427 3.093.284.894.65 1.615 1.093 2.165A5.599 5.599 0 008.99 21.65a8.56 8.56 0 001.958.804c.632.165 1.344.288 2.135.37-.555.496-.895 1.204-1.02 2.125-.292.137-.605.24-.938.309-.333.069-.73.103-1.188.103-.458 0-.913-.148-1.364-.443-.451-.296-.837-.725-1.156-1.289a3.34 3.34 0 00-1.01-1.072c-.41-.275-.754-.44-1.032-.495L4.958 22c-.291 0-.493.031-.604.093-.11.062-.146.14-.104.237.042.096.104.193.187.289.084.096.174.178.271.247l.146.103c.306.138.608.399.906.784.299.385.518.735.657 1.051l.208.475c.18.522.486.945.917 1.268.43.323.896.529 1.396.618.5.09.982.138 1.447.145.466.006.851-.018 1.157-.073l.479-.082c0 .522.003 1.134.01 1.835l.01 1.113c0 .248-.09.454-.27.619-.18.165-.458.213-.834.144-3.222-1.058-5.85-2.965-7.885-5.721C1.017 22.388 0 19.285 0 15.835c0-2.873.715-5.522 2.146-7.948a15.847 15.847 0 015.823-5.763C10.42.708 13.097 0 16 0c2.903 0 5.58.708 8.031 2.124a15.847 15.847 0 015.823 5.763C31.284 10.313 32 12.962 32 15.835c0 3.45-1.017 6.553-3.052 9.31z"/>
    </symbol>
    <symbol viewBox="0 0 32 32" id="instagram">
      <path d="M16 2.884c4.272 0 4.779.016 6.467.093 4.336.198 6.361 2.255 6.558 6.559.078 1.687.092 2.193.092 6.465 0 4.274-.016 4.779-.092 6.466-.198 4.3-2.218 6.361-6.558 6.558-1.688.078-2.192.094-6.467.094-4.272 0-4.779-.016-6.465-.094-4.347-.198-6.362-2.265-6.559-6.56-.077-1.686-.093-2.192-.093-6.465 0-4.272.017-4.777.093-6.465.199-4.303 2.219-6.362 6.559-6.559 1.688-.076 2.193-.092 6.465-.092zM16 0c-4.345 0-4.89.019-6.596.096C3.594.363.364 3.586.097 9.403.02 11.11 0 11.655 0 16c0 4.345.019 4.89.096 6.597.267 5.811 3.49 9.04 9.307 9.307C11.11 31.981 11.655 32 16 32c4.345 0 4.89-.019 6.597-.096 5.806-.267 9.043-3.49 9.306-9.307C31.98 20.891 32 20.345 32 16c0-4.345-.019-4.89-.096-6.596-.261-5.805-3.49-9.04-9.305-9.307C20.89.02 20.345 0 16 0zm0 7.784a8.217 8.217 0 000 16.433 8.217 8.217 0 000-16.433zm0 13.55a5.333 5.333 0 110-10.667 5.334 5.334 0 010 10.666zM24.541 5.54a1.92 1.92 0 100 3.842 1.92 1.92 0 000-3.842z"/>
    </symbol>
    <symbol viewBox="0 0 24 24" id="linkedin">
      <path d="M20.447 20.452h-3.554v-5.569c0-1.328-.027-3.037-1.852-3.037-1.853 0-2.136 1.445-2.136 2.939v5.667H9.351V9h3.414v1.561h.046c.477-.9 1.637-1.85 3.37-1.85 3.601 0 4.267 2.37 4.267 5.455v6.286zM5.337 7.433a2.062 2.062 0 01-2.063-2.065 2.064 2.064 0 112.063 2.065zm1.782 13.019H3.555V9h3.564v11.452zM22.225 0H1.771C.792 0 0 .774 0 1.729v20.542C0 23.227.792 24 1.771 24h20.451C23.2 24 24 23.227 24 22.271V1.729C24 .774 23.2 0 22.222 0h.003z"/>
    </symbol>
    <symbol viewBox="0 0 94 34" id="logo">
      <path d="M43.509 30.51L58.974.007l6.868 3.482-15.465 30.503zm-17.833-.03L41.141-.023l6.868 3.482-15.465 30.503zM78.4 21.8h4.7c6.9 0 10.6-4.9 10.6-10s-3.7-10-10.6-10H70.8V33h7.6V21.8zm0-13.3h4.3c2.1 0 3.3 1.5 3.3 3.2 0 1.6-1.2 3.2-3.3 3.2h-4.3V8.5zM20.9 26.1H7.7V1.6H0v31.3h20.9z"/>
    </symbol>
    
    <symbol viewBox="0 0 24 24" id="open-source">
      <path d="M8.2 17.9c.3 0 .5-.2.5-.5s-.2-.5-.5-.5c-4.1-.4-7.1-1.8-7.1-3.4V11c1.6 1.5 5 2.5 9 2.5.3 0 .5-.2.5-.5s-.2-.5-.5-.5c-5.4 0-9-1.8-9-3.5V6.9c1.6 1.5 5 2.5 9 2.5s7.4-1 9-2.5v2.5c0 .3.2.5.5.5s.5-.2.5-.5V4.9c0-2.5-4.4-4.5-10-4.5s-10 2-10 4.5V18c0 2.2 3.2 4 8.1 4.4.3 0 .5-.2.5-.5s-.2-.5-.5-.5c-4-.4-7.1-1.8-7.1-3.4v-2.5c1.3 1.2 3.8 2.1 7.1 2.4zm1.9-16.5c5.3 0 9 1.8 9 3.5s-3.7 3.5-9 3.5-9-1.8-9-3.5 3.7-3.5 9-3.5z"/>
      <path d="M20.4 10.9c-2 0-3.5 1.5-3.5 3.5v.5h-6.5c-.3 0-.5.2-.5.5v8c0 .3.2.5.5.5h10c.3 0 .5-.2.5-.5v-8c0-.3-.2-.5-.5-.5h-2.5v-.5c0-1.4 1.1-2.5 2.5-2.5s2.5 1.1 2.5 2.5v1c0 .3.2.5.5.5s.5-.2.5-.5v-1c0-2-1.5-3.5-3.5-3.5zm-.5 12h-9v-7h9v7z"/>
      <path d="M15.4 17.4c-.6 0-1 .4-1 1 0 .4.2.7.5.8v1.7c0 .3.2.5.5.5s.5-.2.5-.5v-1.7c.3-.2.5-.5.5-.8 0-.6-.4-1-1-1zm0 .5v.5-.5z"/>
    </symbol>
    <symbol viewBox="0 0 24 24" id="paper-plane">
      <path d="M23.31 1l-23 9.5a.5.5 0 000 .93L9 14.84v7.66a.5.5 0 00.93.25l3.29-5.64 6 3.32a.5.5 0 00.78-.33l4-18.5a.5.5 0 00-.69-.6zm-2.18 2L9.39 13.92 1.84 11zM10 20.65v-5.31l2.34 1.29zm9.15-1.41l-8.81-4.84L22.68 2.95z"/>
    </symbol>
    
    <symbol viewBox="0 0 32 32" id="rss">
      <path d="M8.8 27.707c0 1.193-.428 2.206-1.283 3.041C6.66 31.583 5.622 32 4.4 32s-2.261-.417-3.117-1.252C.428 29.913 0 28.9 0 27.708c0-1.193.428-2.207 1.283-3.041.856-.835 1.895-1.252 3.117-1.252s2.261.417 3.117 1.252c.855.834 1.283 1.848 1.283 3.04zm11.196 2.73a1.38 1.38 0 01-.38 1.087 1.307 1.307 0 01-1.049.476h-3.012a1.36 1.36 0 01-.96-.374 1.387 1.387 0 01-.446-.94c-.328-3.457-1.7-6.413-4.118-8.866-2.417-2.454-5.33-3.847-8.737-4.179a1.35 1.35 0 01-.926-.453A1.403 1.403 0 010 16.214v-3.057c0-.438.156-.793.469-1.065a1.29 1.29 0 01.96-.385h.11a19.78 19.78 0 016.83 1.823 19.734 19.734 0 015.78 4.111 20.03 20.03 0 014.05 5.866 20.547 20.547 0 011.797 6.93zm12 .04c.03.41-.106.765-.41 1.068a1.343 1.343 0 01-1.044.455h-3.25a1.42 1.42 0 01-1.011-.398 1.36 1.36 0 01-.443-.966 25.41 25.41 0 00-2.296-9.284c-1.348-2.932-3.101-5.477-5.26-7.636-2.16-2.16-4.704-3.913-7.636-5.261a25.736 25.736 0 00-9.283-2.319 1.36 1.36 0 01-.965-.443A1.392 1.392 0 010 4.705v-3.25C0 1.03.151.682.454.409a1.36 1.36 0 011-.409h.069a31.529 31.529 0 0111.396 2.727 31.856 31.856 0 019.669 6.682 31.86 31.86 0 016.68 9.67 31.54 31.54 0 012.728 11.398z"/>
    </symbol>
   
    <symbol viewBox="0 0 24 20" id="slashes">
      <path d="M14.8 20l-4.1-2.1L15.3 9l4.6-9L24 2.1 19.4 11l-4.6 9zM4.1 20L0 17.9 4.7 9l4.6-9 4.1 2.1L8.8 11l-4.7 9z"/>
    </symbol>
    
    <symbol viewBox="0 0 32 32" id="twitter">
      <path d="M32 5.903a13.888 13.888 0 01-3.29 3.456c.014.193.021.482.021.869 0 1.793-.257 3.582-.772 5.369a19.575 19.575 0 01-2.345 5.14 20.1 20.1 0 01-3.746 4.356c-1.448 1.262-3.195 2.27-5.239 3.02-2.044.753-4.23 1.128-6.558 1.128-3.668 0-7.025-1-10.071-3 .474.056 1.002.083 1.584.083 3.045 0 5.76-.952 8.142-2.855a6.318 6.318 0 01-3.817-1.335 6.535 6.535 0 01-2.315-3.3c.447.07.86.104 1.238.104.583 0 1.158-.076 1.726-.228-1.516-.317-2.771-1.086-3.766-2.307-.995-1.22-1.493-2.637-1.493-4.251v-.083c.921.524 1.91.807 2.965.848a6.63 6.63 0 01-2.132-2.38 6.61 6.61 0 01-.792-3.185c0-1.214.298-2.338.894-3.373a18.664 18.664 0 005.98 4.935 18.01 18.01 0 007.542 2.058 7.558 7.558 0 01-.162-1.53c0-1.849.64-3.425 1.919-4.728 1.279-1.304 2.825-1.955 4.64-1.955 1.894 0 3.492.703 4.791 2.11a12.715 12.715 0 004.163-1.614c-.501 1.586-1.462 2.814-2.884 3.683 1.26-.138 2.518-.483 3.777-1.035z"/>
    </symbol>
    
    <symbol viewPort="0 0 24 24" id="close">
      <path d="M1,1L23,23M23,1L1,23" stroke-width="2px" />
    </symbol>
    <style>
      .sprite-symbol-usage{display:none}.sprite-symbol-usage:target{display:inline}
    </style>
  </defs>
  
  <use id="facebook-usage" xlink:href="#facebook" class="sprite-symbol-usage"/>
  <use id="github-usage" xlink:href="#github" class="sprite-symbol-usage"/>
  <use id="instagram-usage" xlink:href="#instagram" class="sprite-symbol-usage"/>
  <use id="linkedin-usage" xlink:href="#linkedin" class="sprite-symbol-usage"/>
  <use id="logo-usage" xlink:href="#logo" class="sprite-symbol-usage"/>
  <use id="open-source-usage" xlink:href="#open-source" class="sprite-symbol-usage"/>
  <use id="rss-usage" xlink:href="#rss" class="sprite-symbol-usage"/>
  <use id="slashes-usage" xlink:href="#slashes" class="sprite-symbol-usage"/>
  <use id="twitter-usage" xlink:href="#twitter" class="sprite-symbol-usage"/>
  <use id="close-usage" xlink:href="#close" class="sprite-symbol-usage"/>
</svg>
